<mxfile host="app.diagrams.net" agent="Mozilla/5.0 (Windows NT 10.0; Win64; x64) AppleWebKit/537.36 (KHTML, like Gecko) Chrome/130.0.0.0 Safari/537.36 Edg/130.0.0.0" version="24.8.4">
  <diagram name="Page-1" id="fhFAsCIzdXZGrrx_TjSN">
    <mxGraphModel dx="1876" dy="503" grid="1" gridSize="10" guides="1" tooltips="1" connect="1" arrows="1" fold="1" page="1" pageScale="1" pageWidth="850" pageHeight="1100" math="0" shadow="0">
      <root>
        <mxCell id="0" />
        <mxCell id="1" parent="0" />
        <mxCell id="-c0DdPRZS2cD63ygfUqH-153" value="" style="whiteSpace=wrap;html=1;fillColor=#FFF708;" parent="1" vertex="1">
          <mxGeometry x="470" width="300" height="770" as="geometry" />
        </mxCell>
        <mxCell id="-c0DdPRZS2cD63ygfUqH-147" value="" style="whiteSpace=wrap;html=1;fillColor=#A6C4FF;" parent="1" vertex="1">
          <mxGeometry x="160" width="290" height="770" as="geometry" />
        </mxCell>
        <mxCell id="82fhSveqvJyXGWOy6nE--80" value="" style="whiteSpace=wrap;html=1;fillColor=#A6C4FF;" parent="1" vertex="1">
          <mxGeometry x="800" width="290" height="890" as="geometry" />
        </mxCell>
        <mxCell id="82fhSveqvJyXGWOy6nE--79" value="" style="whiteSpace=wrap;html=1;fillColor=#FFF708;" parent="1" vertex="1">
          <mxGeometry x="1100" width="320" height="890" as="geometry" />
        </mxCell>
        <mxCell id="82fhSveqvJyXGWOy6nE--40" style="edgeStyle=orthogonalEdgeStyle;rounded=0;orthogonalLoop=1;jettySize=auto;html=1;exitX=0.5;exitY=1;exitDx=0;exitDy=0;entryX=0.5;entryY=0;entryDx=0;entryDy=0;" parent="1" source="82fhSveqvJyXGWOy6nE--41" target="82fhSveqvJyXGWOy6nE--43" edge="1">
          <mxGeometry relative="1" as="geometry" />
        </mxCell>
        <mxCell id="82fhSveqvJyXGWOy6nE--41" value="ACTIVE" style="rounded=1;whiteSpace=wrap;html=1;" parent="1" vertex="1">
          <mxGeometry x="310" y="31" width="50" height="20" as="geometry" />
        </mxCell>
        <mxCell id="82fhSveqvJyXGWOy6nE--42" style="edgeStyle=orthogonalEdgeStyle;rounded=0;orthogonalLoop=1;jettySize=auto;html=1;exitX=0.5;exitY=1;exitDx=0;exitDy=0;entryX=0.5;entryY=0;entryDx=0;entryDy=0;" parent="1" source="82fhSveqvJyXGWOy6nE--43" target="82fhSveqvJyXGWOy6nE--45" edge="1">
          <mxGeometry relative="1" as="geometry" />
        </mxCell>
        <mxCell id="82fhSveqvJyXGWOy6nE--43" value="WAITTING FOR PEER" style="rounded=1;whiteSpace=wrap;html=1;" parent="1" vertex="1">
          <mxGeometry x="260" y="61" width="160" height="20" as="geometry" />
        </mxCell>
        <mxCell id="82fhSveqvJyXGWOy6nE--44" style="edgeStyle=orthogonalEdgeStyle;rounded=0;orthogonalLoop=1;jettySize=auto;html=1;exitX=0.5;exitY=1;exitDx=0;exitDy=0;" parent="1" source="82fhSveqvJyXGWOy6nE--45" target="82fhSveqvJyXGWOy6nE--47" edge="1">
          <mxGeometry relative="1" as="geometry" />
        </mxCell>
        <mxCell id="82fhSveqvJyXGWOy6nE--45" value="ACTIVE" style="rounded=1;whiteSpace=wrap;html=1;" parent="1" vertex="1">
          <mxGeometry x="310" y="90" width="50" height="20" as="geometry" />
        </mxCell>
        <mxCell id="82fhSveqvJyXGWOy6nE--46" style="edgeStyle=orthogonalEdgeStyle;rounded=0;orthogonalLoop=1;jettySize=auto;html=1;exitX=0.5;exitY=1;exitDx=0;exitDy=0;entryX=0.5;entryY=0;entryDx=0;entryDy=0;" parent="1" source="82fhSveqvJyXGWOy6nE--47" edge="1">
          <mxGeometry relative="1" as="geometry">
            <mxPoint x="335" y="149.9999999999999" as="targetPoint" />
          </mxGeometry>
        </mxCell>
        <mxCell id="82fhSveqvJyXGWOy6nE--47" value="TUNING" style="rounded=1;whiteSpace=wrap;html=1;" parent="1" vertex="1">
          <mxGeometry x="310" y="120" width="50" height="20" as="geometry" />
        </mxCell>
        <mxCell id="82fhSveqvJyXGWOy6nE--48" style="edgeStyle=orthogonalEdgeStyle;rounded=0;orthogonalLoop=1;jettySize=auto;html=1;exitX=0.5;exitY=1;exitDx=0;exitDy=0;entryX=0.5;entryY=0;entryDx=0;entryDy=0;" parent="1" source="82fhSveqvJyXGWOy6nE--49" target="82fhSveqvJyXGWOy6nE--51" edge="1">
          <mxGeometry relative="1" as="geometry" />
        </mxCell>
        <mxCell id="82fhSveqvJyXGWOy6nE--49" value="TUNED" style="rounded=1;whiteSpace=wrap;html=1;" parent="1" vertex="1">
          <mxGeometry x="310" y="151" width="50" height="20" as="geometry" />
        </mxCell>
        <mxCell id="82fhSveqvJyXGWOy6nE--50" style="edgeStyle=orthogonalEdgeStyle;rounded=0;orthogonalLoop=1;jettySize=auto;html=1;exitX=0.5;exitY=1;exitDx=0;exitDy=0;entryX=0.5;entryY=0;entryDx=0;entryDy=0;" parent="1" source="82fhSveqvJyXGWOy6nE--51" target="82fhSveqvJyXGWOy6nE--53" edge="1">
          <mxGeometry relative="1" as="geometry" />
        </mxCell>
        <mxCell id="82fhSveqvJyXGWOy6nE--51" value="PCS_LOCK" style="rounded=1;whiteSpace=wrap;html=1;" parent="1" vertex="1">
          <mxGeometry x="285" y="180" width="100" height="20" as="geometry" />
        </mxCell>
        <mxCell id="82fhSveqvJyXGWOy6nE--52" style="edgeStyle=orthogonalEdgeStyle;rounded=0;orthogonalLoop=1;jettySize=auto;html=1;exitX=0.5;exitY=1;exitDx=0;exitDy=0;entryX=0.5;entryY=0;entryDx=0;entryDy=0;" parent="1" source="82fhSveqvJyXGWOy6nE--53" target="82fhSveqvJyXGWOy6nE--55" edge="1">
          <mxGeometry relative="1" as="geometry" />
        </mxCell>
        <mxCell id="82fhSveqvJyXGWOy6nE--53" value="PCS_STABLE" style="rounded=1;whiteSpace=wrap;html=1;" parent="1" vertex="1">
          <mxGeometry x="285" y="217" width="100" height="20" as="geometry" />
        </mxCell>
        <mxCell id="-c0DdPRZS2cD63ygfUqH-4" style="edgeStyle=orthogonalEdgeStyle;rounded=0;orthogonalLoop=1;jettySize=auto;html=1;exitX=0.5;exitY=1;exitDx=0;exitDy=0;entryX=0.5;entryY=0;entryDx=0;entryDy=0;" parent="1" source="82fhSveqvJyXGWOy6nE--55" target="82fhSveqvJyXGWOy6nE--73" edge="1">
          <mxGeometry relative="1" as="geometry" />
        </mxCell>
        <mxCell id="82fhSveqvJyXGWOy6nE--55" value="LINK UP" style="rounded=1;whiteSpace=wrap;html=1;fillColor=#0DFF9E;" parent="1" vertex="1">
          <mxGeometry x="300" y="248" width="70" height="20" as="geometry" />
        </mxCell>
        <mxCell id="82fhSveqvJyXGWOy6nE--56" style="edgeStyle=orthogonalEdgeStyle;rounded=0;orthogonalLoop=1;jettySize=auto;html=1;exitX=0.5;exitY=1;exitDx=0;exitDy=0;entryX=0.5;entryY=0;entryDx=0;entryDy=0;" parent="1" source="82fhSveqvJyXGWOy6nE--57" target="82fhSveqvJyXGWOy6nE--59" edge="1">
          <mxGeometry relative="1" as="geometry" />
        </mxCell>
        <mxCell id="82fhSveqvJyXGWOy6nE--57" value="PCAL_STOP" style="rounded=1;whiteSpace=wrap;html=1;fillColor=#8F8FFF;" parent="1" vertex="1">
          <mxGeometry x="285" y="504" width="100" height="20" as="geometry" />
        </mxCell>
        <mxCell id="82fhSveqvJyXGWOy6nE--58" style="edgeStyle=orthogonalEdgeStyle;rounded=0;orthogonalLoop=1;jettySize=auto;html=1;exitX=0.5;exitY=1;exitDx=0;exitDy=0;entryX=0.5;entryY=0;entryDx=0;entryDy=0;" parent="1" source="82fhSveqvJyXGWOy6nE--59" target="82fhSveqvJyXGWOy6nE--61" edge="1">
          <mxGeometry relative="1" as="geometry" />
        </mxCell>
        <mxCell id="82fhSveqvJyXGWOy6nE--59" value="WAITTING FOR PEER" style="rounded=1;whiteSpace=wrap;html=1;" parent="1" vertex="1">
          <mxGeometry x="255" y="533" width="160" height="20" as="geometry" />
        </mxCell>
        <mxCell id="82fhSveqvJyXGWOy6nE--60" style="edgeStyle=orthogonalEdgeStyle;rounded=0;orthogonalLoop=1;jettySize=auto;html=1;exitX=0.5;exitY=1;exitDx=0;exitDy=0;entryX=0.5;entryY=0;entryDx=0;entryDy=0;" parent="1" source="82fhSveqvJyXGWOy6nE--61" target="82fhSveqvJyXGWOy6nE--63" edge="1">
          <mxGeometry relative="1" as="geometry" />
        </mxCell>
        <mxCell id="82fhSveqvJyXGWOy6nE--61" value="ACTIVE" style="rounded=1;whiteSpace=wrap;html=1;" parent="1" vertex="1">
          <mxGeometry x="310" y="561" width="50" height="20" as="geometry" />
        </mxCell>
        <mxCell id="82fhSveqvJyXGWOy6nE--62" style="edgeStyle=orthogonalEdgeStyle;rounded=0;orthogonalLoop=1;jettySize=auto;html=1;exitX=0.5;exitY=1;exitDx=0;exitDy=0;entryX=0.5;entryY=0;entryDx=0;entryDy=0;" parent="1" source="82fhSveqvJyXGWOy6nE--63" target="82fhSveqvJyXGWOy6nE--65" edge="1">
          <mxGeometry relative="1" as="geometry" />
        </mxCell>
        <mxCell id="82fhSveqvJyXGWOy6nE--63" value="TUNING" style="rounded=1;whiteSpace=wrap;html=1;" parent="1" vertex="1">
          <mxGeometry x="310" y="590" width="50" height="20" as="geometry" />
        </mxCell>
        <mxCell id="82fhSveqvJyXGWOy6nE--64" style="edgeStyle=orthogonalEdgeStyle;rounded=0;orthogonalLoop=1;jettySize=auto;html=1;exitX=0.5;exitY=1;exitDx=0;exitDy=0;entryX=0.5;entryY=0;entryDx=0;entryDy=0;" parent="1" source="82fhSveqvJyXGWOy6nE--65" target="82fhSveqvJyXGWOy6nE--67" edge="1">
          <mxGeometry relative="1" as="geometry" />
        </mxCell>
        <mxCell id="82fhSveqvJyXGWOy6nE--65" value="TUNED" style="rounded=1;whiteSpace=wrap;html=1;" parent="1" vertex="1">
          <mxGeometry x="310" y="620" width="50" height="20" as="geometry" />
        </mxCell>
        <mxCell id="82fhSveqvJyXGWOy6nE--66" style="edgeStyle=orthogonalEdgeStyle;rounded=0;orthogonalLoop=1;jettySize=auto;html=1;exitX=0.5;exitY=1;exitDx=0;exitDy=0;entryX=0.5;entryY=0;entryDx=0;entryDy=0;" parent="1" source="82fhSveqvJyXGWOy6nE--67" target="82fhSveqvJyXGWOy6nE--69" edge="1">
          <mxGeometry relative="1" as="geometry" />
        </mxCell>
        <mxCell id="82fhSveqvJyXGWOy6nE--67" value="PCS_LOCK" style="rounded=1;whiteSpace=wrap;html=1;" parent="1" vertex="1">
          <mxGeometry x="284" y="650" width="100" height="20" as="geometry" />
        </mxCell>
        <mxCell id="82fhSveqvJyXGWOy6nE--68" style="edgeStyle=orthogonalEdgeStyle;rounded=0;orthogonalLoop=1;jettySize=auto;html=1;exitX=0.5;exitY=1;exitDx=0;exitDy=0;entryX=0.5;entryY=0;entryDx=0;entryDy=0;" parent="1" source="82fhSveqvJyXGWOy6nE--69" target="82fhSveqvJyXGWOy6nE--71" edge="1">
          <mxGeometry relative="1" as="geometry" />
        </mxCell>
        <mxCell id="82fhSveqvJyXGWOy6nE--69" value="PCS_STABLE" style="rounded=1;whiteSpace=wrap;html=1;" parent="1" vertex="1">
          <mxGeometry x="290" y="679" width="100" height="20" as="geometry" />
        </mxCell>
        <mxCell id="82fhSveqvJyXGWOy6nE--71" value="LINK UP" style="rounded=1;whiteSpace=wrap;html=1;fillColor=#14FF53;" parent="1" vertex="1">
          <mxGeometry x="303" y="706" width="70" height="20" as="geometry" />
        </mxCell>
        <mxCell id="82fhSveqvJyXGWOy6nE--72" style="edgeStyle=orthogonalEdgeStyle;rounded=0;orthogonalLoop=1;jettySize=auto;html=1;exitX=0.5;exitY=1;exitDx=0;exitDy=0;entryX=0.5;entryY=0;entryDx=0;entryDy=0;" parent="1" source="82fhSveqvJyXGWOy6nE--73" target="82fhSveqvJyXGWOy6nE--74" edge="1">
          <mxGeometry relative="1" as="geometry" />
        </mxCell>
        <mxCell id="82fhSveqvJyXGWOy6nE--73" value="PCS_STABLE" style="rounded=1;whiteSpace=wrap;html=1;" parent="1" vertex="1">
          <mxGeometry x="285" y="277" width="100" height="20" as="geometry" />
        </mxCell>
        <mxCell id="-c0DdPRZS2cD63ygfUqH-5" style="edgeStyle=orthogonalEdgeStyle;rounded=0;orthogonalLoop=1;jettySize=auto;html=1;exitX=0.5;exitY=1;exitDx=0;exitDy=0;" parent="1" source="82fhSveqvJyXGWOy6nE--74" target="82fhSveqvJyXGWOy6nE--57" edge="1">
          <mxGeometry relative="1" as="geometry" />
        </mxCell>
        <mxCell id="82fhSveqvJyXGWOy6nE--74" value="LINK UP" style="rounded=1;whiteSpace=wrap;html=1;fillColor=#17FF5D;" parent="1" vertex="1">
          <mxGeometry x="300" y="475" width="70" height="20" as="geometry" />
        </mxCell>
        <mxCell id="82fhSveqvJyXGWOy6nE--82" value="port1" style="text;html=1;align=center;verticalAlign=middle;resizable=0;points=[];autosize=1;strokeColor=none;fillColor=#FF0324;fontStyle=1" parent="1" vertex="1">
          <mxGeometry x="385" width="50" height="30" as="geometry" />
        </mxCell>
        <mxCell id="-c0DdPRZS2cD63ygfUqH-6" style="edgeStyle=orthogonalEdgeStyle;rounded=0;orthogonalLoop=1;jettySize=auto;html=1;exitX=0.5;exitY=1;exitDx=0;exitDy=0;entryX=0.5;entryY=0;entryDx=0;entryDy=0;" parent="1" source="-c0DdPRZS2cD63ygfUqH-7" target="-c0DdPRZS2cD63ygfUqH-9" edge="1">
          <mxGeometry relative="1" as="geometry" />
        </mxCell>
        <mxCell id="-c0DdPRZS2cD63ygfUqH-7" value="ACTIVE" style="rounded=1;whiteSpace=wrap;html=1;" parent="1" vertex="1">
          <mxGeometry x="625" y="30" width="50" height="20" as="geometry" />
        </mxCell>
        <mxCell id="-c0DdPRZS2cD63ygfUqH-8" style="edgeStyle=orthogonalEdgeStyle;rounded=0;orthogonalLoop=1;jettySize=auto;html=1;exitX=0.5;exitY=1;exitDx=0;exitDy=0;entryX=0.5;entryY=0;entryDx=0;entryDy=0;" parent="1" source="-c0DdPRZS2cD63ygfUqH-9" target="-c0DdPRZS2cD63ygfUqH-11" edge="1">
          <mxGeometry relative="1" as="geometry" />
        </mxCell>
        <mxCell id="-c0DdPRZS2cD63ygfUqH-9" value="WAITTING FOR PEER" style="rounded=1;whiteSpace=wrap;html=1;" parent="1" vertex="1">
          <mxGeometry x="575" y="60" width="160" height="20" as="geometry" />
        </mxCell>
        <mxCell id="-c0DdPRZS2cD63ygfUqH-152" style="edgeStyle=orthogonalEdgeStyle;rounded=0;orthogonalLoop=1;jettySize=auto;html=1;exitX=0.5;exitY=1;exitDx=0;exitDy=0;entryX=0.5;entryY=0;entryDx=0;entryDy=0;" parent="1" source="-c0DdPRZS2cD63ygfUqH-11" target="-c0DdPRZS2cD63ygfUqH-13" edge="1">
          <mxGeometry relative="1" as="geometry" />
        </mxCell>
        <mxCell id="-c0DdPRZS2cD63ygfUqH-11" value="ACTIVE" style="rounded=1;whiteSpace=wrap;html=1;" parent="1" vertex="1">
          <mxGeometry x="630" y="90" width="50" height="20" as="geometry" />
        </mxCell>
        <mxCell id="-c0DdPRZS2cD63ygfUqH-12" style="edgeStyle=orthogonalEdgeStyle;rounded=0;orthogonalLoop=1;jettySize=auto;html=1;exitX=0.5;exitY=1;exitDx=0;exitDy=0;entryX=0.5;entryY=0;entryDx=0;entryDy=0;" parent="1" source="-c0DdPRZS2cD63ygfUqH-13" target="-c0DdPRZS2cD63ygfUqH-15" edge="1">
          <mxGeometry relative="1" as="geometry" />
        </mxCell>
        <mxCell id="-c0DdPRZS2cD63ygfUqH-13" value="TUNING" style="rounded=1;whiteSpace=wrap;html=1;" parent="1" vertex="1">
          <mxGeometry x="630" y="120" width="50" height="20" as="geometry" />
        </mxCell>
        <mxCell id="-c0DdPRZS2cD63ygfUqH-14" style="edgeStyle=orthogonalEdgeStyle;rounded=0;orthogonalLoop=1;jettySize=auto;html=1;exitX=0.5;exitY=1;exitDx=0;exitDy=0;entryX=0.5;entryY=0;entryDx=0;entryDy=0;" parent="1" source="-c0DdPRZS2cD63ygfUqH-15" target="-c0DdPRZS2cD63ygfUqH-17" edge="1">
          <mxGeometry relative="1" as="geometry" />
        </mxCell>
        <mxCell id="-c0DdPRZS2cD63ygfUqH-15" value="TUNED" style="rounded=1;whiteSpace=wrap;html=1;" parent="1" vertex="1">
          <mxGeometry x="630" y="148" width="50" height="20" as="geometry" />
        </mxCell>
        <mxCell id="-c0DdPRZS2cD63ygfUqH-16" style="edgeStyle=orthogonalEdgeStyle;rounded=0;orthogonalLoop=1;jettySize=auto;html=1;exitX=0.5;exitY=1;exitDx=0;exitDy=0;entryX=0.5;entryY=0;entryDx=0;entryDy=0;" parent="1" source="-c0DdPRZS2cD63ygfUqH-17" target="-c0DdPRZS2cD63ygfUqH-19" edge="1">
          <mxGeometry relative="1" as="geometry" />
        </mxCell>
        <mxCell id="-c0DdPRZS2cD63ygfUqH-17" value="PCS_LOCK" style="rounded=1;whiteSpace=wrap;html=1;" parent="1" vertex="1">
          <mxGeometry x="605" y="177" width="100" height="20" as="geometry" />
        </mxCell>
        <mxCell id="-c0DdPRZS2cD63ygfUqH-18" style="edgeStyle=orthogonalEdgeStyle;rounded=0;orthogonalLoop=1;jettySize=auto;html=1;exitX=0.5;exitY=1;exitDx=0;exitDy=0;entryX=0.5;entryY=0;entryDx=0;entryDy=0;" parent="1" source="-c0DdPRZS2cD63ygfUqH-19" target="-c0DdPRZS2cD63ygfUqH-21" edge="1">
          <mxGeometry relative="1" as="geometry" />
        </mxCell>
        <mxCell id="-c0DdPRZS2cD63ygfUqH-19" value="PCS_STABLE" style="rounded=1;whiteSpace=wrap;html=1;" parent="1" vertex="1">
          <mxGeometry x="605" y="217" width="100" height="20" as="geometry" />
        </mxCell>
        <mxCell id="-c0DdPRZS2cD63ygfUqH-20" style="edgeStyle=orthogonalEdgeStyle;rounded=0;orthogonalLoop=1;jettySize=auto;html=1;exitX=0.5;exitY=1;exitDx=0;exitDy=0;entryX=0.5;entryY=0;entryDx=0;entryDy=0;" parent="1" source="-c0DdPRZS2cD63ygfUqH-21" target="-c0DdPRZS2cD63ygfUqH-23" edge="1">
          <mxGeometry relative="1" as="geometry" />
        </mxCell>
        <mxCell id="-c0DdPRZS2cD63ygfUqH-21" value="LINK UP" style="rounded=1;whiteSpace=wrap;html=1;fillColor=#0DFF9E;" parent="1" vertex="1">
          <mxGeometry x="619" y="246" width="70" height="20" as="geometry" />
        </mxCell>
        <mxCell id="-c0DdPRZS2cD63ygfUqH-22" style="edgeStyle=orthogonalEdgeStyle;rounded=0;orthogonalLoop=1;jettySize=auto;html=1;exitX=0.5;exitY=1;exitDx=0;exitDy=0;entryX=0.5;entryY=0;entryDx=0;entryDy=0;" parent="1" source="-c0DdPRZS2cD63ygfUqH-23" target="-c0DdPRZS2cD63ygfUqH-25" edge="1">
          <mxGeometry relative="1" as="geometry" />
        </mxCell>
        <mxCell id="-c0DdPRZS2cD63ygfUqH-23" value="PCAL_STOP" style="rounded=1;whiteSpace=wrap;html=1;fillColor=#908CFF;" parent="1" vertex="1">
          <mxGeometry x="600" y="276" width="100" height="20" as="geometry" />
        </mxCell>
        <mxCell id="-c0DdPRZS2cD63ygfUqH-24" style="edgeStyle=orthogonalEdgeStyle;rounded=0;orthogonalLoop=1;jettySize=auto;html=1;exitX=0.5;exitY=1;exitDx=0;exitDy=0;entryX=0.5;entryY=0;entryDx=0;entryDy=0;" parent="1" source="-c0DdPRZS2cD63ygfUqH-25" target="-c0DdPRZS2cD63ygfUqH-27" edge="1">
          <mxGeometry relative="1" as="geometry" />
        </mxCell>
        <mxCell id="-c0DdPRZS2cD63ygfUqH-25" value="WAITTING FOR PEER" style="rounded=1;whiteSpace=wrap;html=1;" parent="1" vertex="1">
          <mxGeometry x="570" y="303" width="160" height="20" as="geometry" />
        </mxCell>
        <mxCell id="-c0DdPRZS2cD63ygfUqH-26" style="edgeStyle=orthogonalEdgeStyle;rounded=0;orthogonalLoop=1;jettySize=auto;html=1;exitX=0.5;exitY=1;exitDx=0;exitDy=0;entryX=0.5;entryY=0;entryDx=0;entryDy=0;" parent="1" source="-c0DdPRZS2cD63ygfUqH-27" target="-c0DdPRZS2cD63ygfUqH-29" edge="1">
          <mxGeometry relative="1" as="geometry" />
        </mxCell>
        <mxCell id="-c0DdPRZS2cD63ygfUqH-27" value="ACTIVE" style="rounded=1;whiteSpace=wrap;html=1;" parent="1" vertex="1">
          <mxGeometry x="625" y="331" width="50" height="20" as="geometry" />
        </mxCell>
        <mxCell id="-c0DdPRZS2cD63ygfUqH-28" style="edgeStyle=orthogonalEdgeStyle;rounded=0;orthogonalLoop=1;jettySize=auto;html=1;exitX=0.5;exitY=1;exitDx=0;exitDy=0;entryX=0.5;entryY=0;entryDx=0;entryDy=0;" parent="1" source="-c0DdPRZS2cD63ygfUqH-29" target="-c0DdPRZS2cD63ygfUqH-31" edge="1">
          <mxGeometry relative="1" as="geometry" />
        </mxCell>
        <mxCell id="-c0DdPRZS2cD63ygfUqH-29" value="TUNING" style="rounded=1;whiteSpace=wrap;html=1;" parent="1" vertex="1">
          <mxGeometry x="625" y="361" width="50" height="20" as="geometry" />
        </mxCell>
        <mxCell id="-c0DdPRZS2cD63ygfUqH-30" style="edgeStyle=orthogonalEdgeStyle;rounded=0;orthogonalLoop=1;jettySize=auto;html=1;exitX=0.5;exitY=1;exitDx=0;exitDy=0;entryX=0.5;entryY=0;entryDx=0;entryDy=0;" parent="1" source="-c0DdPRZS2cD63ygfUqH-31" target="-c0DdPRZS2cD63ygfUqH-33" edge="1">
          <mxGeometry relative="1" as="geometry" />
        </mxCell>
        <mxCell id="-c0DdPRZS2cD63ygfUqH-31" value="TUNED" style="rounded=1;whiteSpace=wrap;html=1;" parent="1" vertex="1">
          <mxGeometry x="625" y="391" width="50" height="20" as="geometry" />
        </mxCell>
        <mxCell id="-c0DdPRZS2cD63ygfUqH-32" style="edgeStyle=orthogonalEdgeStyle;rounded=0;orthogonalLoop=1;jettySize=auto;html=1;exitX=0.5;exitY=1;exitDx=0;exitDy=0;entryX=0.5;entryY=0;entryDx=0;entryDy=0;" parent="1" source="-c0DdPRZS2cD63ygfUqH-33" target="-c0DdPRZS2cD63ygfUqH-35" edge="1">
          <mxGeometry relative="1" as="geometry" />
        </mxCell>
        <mxCell id="-c0DdPRZS2cD63ygfUqH-33" value="PCS_LOCK" style="rounded=1;whiteSpace=wrap;html=1;" parent="1" vertex="1">
          <mxGeometry x="605" y="421" width="100" height="20" as="geometry" />
        </mxCell>
        <mxCell id="-c0DdPRZS2cD63ygfUqH-34" style="edgeStyle=orthogonalEdgeStyle;rounded=0;orthogonalLoop=1;jettySize=auto;html=1;exitX=0.5;exitY=1;exitDx=0;exitDy=0;entryX=0.5;entryY=0;entryDx=0;entryDy=0;" parent="1" source="-c0DdPRZS2cD63ygfUqH-35" target="-c0DdPRZS2cD63ygfUqH-37" edge="1">
          <mxGeometry relative="1" as="geometry" />
        </mxCell>
        <mxCell id="-c0DdPRZS2cD63ygfUqH-35" value="PCS_STABLE" style="rounded=1;whiteSpace=wrap;html=1;" parent="1" vertex="1">
          <mxGeometry x="605" y="449" width="100" height="20" as="geometry" />
        </mxCell>
        <mxCell id="-c0DdPRZS2cD63ygfUqH-36" style="edgeStyle=orthogonalEdgeStyle;rounded=0;orthogonalLoop=1;jettySize=auto;html=1;exitX=0.5;exitY=1;exitDx=0;exitDy=0;entryX=0.5;entryY=0;entryDx=0;entryDy=0;" parent="1" source="-c0DdPRZS2cD63ygfUqH-37" target="-c0DdPRZS2cD63ygfUqH-39" edge="1">
          <mxGeometry relative="1" as="geometry" />
        </mxCell>
        <mxCell id="-c0DdPRZS2cD63ygfUqH-37" value="LINK UP" style="rounded=1;whiteSpace=wrap;html=1;fillColor=#14FF53;" parent="1" vertex="1">
          <mxGeometry x="617" y="478" width="70" height="20" as="geometry" />
        </mxCell>
        <mxCell id="-c0DdPRZS2cD63ygfUqH-38" style="edgeStyle=orthogonalEdgeStyle;rounded=0;orthogonalLoop=1;jettySize=auto;html=1;exitX=0.5;exitY=1;exitDx=0;exitDy=0;entryX=0.5;entryY=0;entryDx=0;entryDy=0;" parent="1" source="-c0DdPRZS2cD63ygfUqH-39" target="-c0DdPRZS2cD63ygfUqH-40" edge="1">
          <mxGeometry relative="1" as="geometry" />
        </mxCell>
        <mxCell id="-c0DdPRZS2cD63ygfUqH-39" value="PCS_STABLE" style="rounded=1;whiteSpace=wrap;html=1;" parent="1" vertex="1">
          <mxGeometry x="603" y="509" width="100" height="20" as="geometry" />
        </mxCell>
        <mxCell id="-c0DdPRZS2cD63ygfUqH-40" value="LINK UP" style="rounded=1;whiteSpace=wrap;html=1;fillColor=#17FF5D;" parent="1" vertex="1">
          <mxGeometry x="618" y="703" width="70" height="20" as="geometry" />
        </mxCell>
        <mxCell id="-c0DdPRZS2cD63ygfUqH-41" value="port3" style="text;html=1;align=center;verticalAlign=middle;resizable=0;points=[];autosize=1;strokeColor=none;fillColor=#FF0F47;fontStyle=1" parent="1" vertex="1">
          <mxGeometry x="705" width="50" height="30" as="geometry" />
        </mxCell>
        <mxCell id="-c0DdPRZS2cD63ygfUqH-46" style="edgeStyle=orthogonalEdgeStyle;rounded=0;orthogonalLoop=1;jettySize=auto;html=1;exitX=0.5;exitY=1;exitDx=0;exitDy=0;entryX=0.5;entryY=0;entryDx=0;entryDy=0;" parent="1" source="-c0DdPRZS2cD63ygfUqH-47" target="-c0DdPRZS2cD63ygfUqH-49" edge="1">
          <mxGeometry relative="1" as="geometry" />
        </mxCell>
        <mxCell id="-c0DdPRZS2cD63ygfUqH-47" value="ACTIVE" style="rounded=1;whiteSpace=wrap;html=1;" parent="1" vertex="1">
          <mxGeometry x="950" y="33" width="50" height="20" as="geometry" />
        </mxCell>
        <mxCell id="-c0DdPRZS2cD63ygfUqH-48" style="edgeStyle=orthogonalEdgeStyle;rounded=0;orthogonalLoop=1;jettySize=auto;html=1;exitX=0.5;exitY=1;exitDx=0;exitDy=0;entryX=0.5;entryY=0;entryDx=0;entryDy=0;" parent="1" source="-c0DdPRZS2cD63ygfUqH-49" target="-c0DdPRZS2cD63ygfUqH-51" edge="1">
          <mxGeometry relative="1" as="geometry" />
        </mxCell>
        <mxCell id="-c0DdPRZS2cD63ygfUqH-49" value="WAITTING FOR PEER" style="rounded=1;whiteSpace=wrap;html=1;" parent="1" vertex="1">
          <mxGeometry x="900" y="63" width="160" height="20" as="geometry" />
        </mxCell>
        <mxCell id="-c0DdPRZS2cD63ygfUqH-50" style="edgeStyle=orthogonalEdgeStyle;rounded=0;orthogonalLoop=1;jettySize=auto;html=1;exitX=0.5;exitY=1;exitDx=0;exitDy=0;" parent="1" source="-c0DdPRZS2cD63ygfUqH-51" target="-c0DdPRZS2cD63ygfUqH-53" edge="1">
          <mxGeometry relative="1" as="geometry" />
        </mxCell>
        <mxCell id="-c0DdPRZS2cD63ygfUqH-51" value="ACTIVE" style="rounded=1;whiteSpace=wrap;html=1;" parent="1" vertex="1">
          <mxGeometry x="950" y="90" width="50" height="20" as="geometry" />
        </mxCell>
        <mxCell id="-c0DdPRZS2cD63ygfUqH-130" style="edgeStyle=orthogonalEdgeStyle;rounded=0;orthogonalLoop=1;jettySize=auto;html=1;exitX=0.5;exitY=1;exitDx=0;exitDy=0;entryX=0.5;entryY=0;entryDx=0;entryDy=0;" parent="1" source="-c0DdPRZS2cD63ygfUqH-53" target="-c0DdPRZS2cD63ygfUqH-129" edge="1">
          <mxGeometry relative="1" as="geometry" />
        </mxCell>
        <mxCell id="-c0DdPRZS2cD63ygfUqH-53" value="TUNING" style="rounded=1;whiteSpace=wrap;html=1;" parent="1" vertex="1">
          <mxGeometry x="950" y="120" width="50" height="20" as="geometry" />
        </mxCell>
        <mxCell id="-c0DdPRZS2cD63ygfUqH-56" style="edgeStyle=orthogonalEdgeStyle;rounded=0;orthogonalLoop=1;jettySize=auto;html=1;exitX=0.5;exitY=1;exitDx=0;exitDy=0;entryX=0.5;entryY=0;entryDx=0;entryDy=0;" parent="1" source="-c0DdPRZS2cD63ygfUqH-57" target="-c0DdPRZS2cD63ygfUqH-59" edge="1">
          <mxGeometry relative="1" as="geometry" />
        </mxCell>
        <mxCell id="-c0DdPRZS2cD63ygfUqH-57" value="PCS_LOCK" style="rounded=1;whiteSpace=wrap;html=1;" parent="1" vertex="1">
          <mxGeometry x="930" y="180" width="100" height="20" as="geometry" />
        </mxCell>
        <mxCell id="-c0DdPRZS2cD63ygfUqH-58" style="edgeStyle=orthogonalEdgeStyle;rounded=0;orthogonalLoop=1;jettySize=auto;html=1;exitX=0.5;exitY=1;exitDx=0;exitDy=0;entryX=0.5;entryY=0;entryDx=0;entryDy=0;" parent="1" source="-c0DdPRZS2cD63ygfUqH-59" target="-c0DdPRZS2cD63ygfUqH-61" edge="1">
          <mxGeometry relative="1" as="geometry" />
        </mxCell>
        <mxCell id="-c0DdPRZS2cD63ygfUqH-59" value="PCS_STABLE" style="rounded=1;whiteSpace=wrap;html=1;" parent="1" vertex="1">
          <mxGeometry x="930" y="210" width="100" height="20" as="geometry" />
        </mxCell>
        <mxCell id="-c0DdPRZS2cD63ygfUqH-60" style="edgeStyle=orthogonalEdgeStyle;rounded=0;orthogonalLoop=1;jettySize=auto;html=1;exitX=0.5;exitY=1;exitDx=0;exitDy=0;entryX=0.5;entryY=0;entryDx=0;entryDy=0;" parent="1" source="-c0DdPRZS2cD63ygfUqH-61" target="-c0DdPRZS2cD63ygfUqH-78" edge="1">
          <mxGeometry relative="1" as="geometry" />
        </mxCell>
        <mxCell id="-c0DdPRZS2cD63ygfUqH-61" value="LINK UP" style="rounded=1;whiteSpace=wrap;html=1;fillColor=#0DFF9E;" parent="1" vertex="1">
          <mxGeometry x="941" y="239" width="70" height="20" as="geometry" />
        </mxCell>
        <mxCell id="-c0DdPRZS2cD63ygfUqH-139" style="edgeStyle=orthogonalEdgeStyle;rounded=0;orthogonalLoop=1;jettySize=auto;html=1;exitX=0.5;exitY=1;exitDx=0;exitDy=0;entryX=0.5;entryY=0;entryDx=0;entryDy=0;" parent="1" source="-c0DdPRZS2cD63ygfUqH-63" target="-c0DdPRZS2cD63ygfUqH-65" edge="1">
          <mxGeometry relative="1" as="geometry" />
        </mxCell>
        <mxCell id="-c0DdPRZS2cD63ygfUqH-63" value="PCAL_STOP" style="rounded=1;whiteSpace=wrap;html=1;fillColor=#8F8FFF;" parent="1" vertex="1">
          <mxGeometry x="930" y="573" width="100" height="20" as="geometry" />
        </mxCell>
        <mxCell id="-c0DdPRZS2cD63ygfUqH-64" style="edgeStyle=orthogonalEdgeStyle;rounded=0;orthogonalLoop=1;jettySize=auto;html=1;exitX=0.5;exitY=1;exitDx=0;exitDy=0;entryX=0.5;entryY=0;entryDx=0;entryDy=0;" parent="1" source="-c0DdPRZS2cD63ygfUqH-65" target="-c0DdPRZS2cD63ygfUqH-67" edge="1">
          <mxGeometry relative="1" as="geometry" />
        </mxCell>
        <mxCell id="-c0DdPRZS2cD63ygfUqH-65" value="WAITTING FOR PEER" style="rounded=1;whiteSpace=wrap;html=1;" parent="1" vertex="1">
          <mxGeometry x="896" y="613" width="160" height="20" as="geometry" />
        </mxCell>
        <mxCell id="-c0DdPRZS2cD63ygfUqH-66" style="edgeStyle=orthogonalEdgeStyle;rounded=0;orthogonalLoop=1;jettySize=auto;html=1;exitX=0.5;exitY=1;exitDx=0;exitDy=0;entryX=0.5;entryY=0;entryDx=0;entryDy=0;" parent="1" source="-c0DdPRZS2cD63ygfUqH-67" target="-c0DdPRZS2cD63ygfUqH-69" edge="1">
          <mxGeometry relative="1" as="geometry" />
        </mxCell>
        <mxCell id="-c0DdPRZS2cD63ygfUqH-67" value="ACTIVE" style="rounded=1;whiteSpace=wrap;html=1;" parent="1" vertex="1">
          <mxGeometry x="951" y="640" width="50" height="20" as="geometry" />
        </mxCell>
        <mxCell id="-c0DdPRZS2cD63ygfUqH-68" style="edgeStyle=orthogonalEdgeStyle;rounded=0;orthogonalLoop=1;jettySize=auto;html=1;exitX=0.5;exitY=1;exitDx=0;exitDy=0;entryX=0.5;entryY=0;entryDx=0;entryDy=0;" parent="1" source="-c0DdPRZS2cD63ygfUqH-69" target="-c0DdPRZS2cD63ygfUqH-71" edge="1">
          <mxGeometry relative="1" as="geometry" />
        </mxCell>
        <mxCell id="-c0DdPRZS2cD63ygfUqH-69" value="TUNING" style="rounded=1;whiteSpace=wrap;html=1;" parent="1" vertex="1">
          <mxGeometry x="951" y="670" width="50" height="20" as="geometry" />
        </mxCell>
        <mxCell id="-c0DdPRZS2cD63ygfUqH-70" style="edgeStyle=orthogonalEdgeStyle;rounded=0;orthogonalLoop=1;jettySize=auto;html=1;exitX=0.5;exitY=1;exitDx=0;exitDy=0;entryX=0.5;entryY=0;entryDx=0;entryDy=0;" parent="1" source="-c0DdPRZS2cD63ygfUqH-71" target="-c0DdPRZS2cD63ygfUqH-73" edge="1">
          <mxGeometry relative="1" as="geometry" />
        </mxCell>
        <mxCell id="-c0DdPRZS2cD63ygfUqH-71" value="TUNED" style="rounded=1;whiteSpace=wrap;html=1;" parent="1" vertex="1">
          <mxGeometry x="951" y="695" width="50" height="20" as="geometry" />
        </mxCell>
        <mxCell id="-c0DdPRZS2cD63ygfUqH-72" style="edgeStyle=orthogonalEdgeStyle;rounded=0;orthogonalLoop=1;jettySize=auto;html=1;exitX=0.5;exitY=1;exitDx=0;exitDy=0;entryX=0.5;entryY=0;entryDx=0;entryDy=0;" parent="1" source="-c0DdPRZS2cD63ygfUqH-73" target="-c0DdPRZS2cD63ygfUqH-75" edge="1">
          <mxGeometry relative="1" as="geometry" />
        </mxCell>
        <mxCell id="-c0DdPRZS2cD63ygfUqH-73" value="PCS_LOCK" style="rounded=1;whiteSpace=wrap;html=1;" parent="1" vertex="1">
          <mxGeometry x="927" y="724" width="100" height="20" as="geometry" />
        </mxCell>
        <mxCell id="-c0DdPRZS2cD63ygfUqH-74" style="edgeStyle=orthogonalEdgeStyle;rounded=0;orthogonalLoop=1;jettySize=auto;html=1;exitX=0.5;exitY=1;exitDx=0;exitDy=0;entryX=0.5;entryY=0;entryDx=0;entryDy=0;" parent="1" source="-c0DdPRZS2cD63ygfUqH-75" target="-c0DdPRZS2cD63ygfUqH-76" edge="1">
          <mxGeometry relative="1" as="geometry" />
        </mxCell>
        <mxCell id="-c0DdPRZS2cD63ygfUqH-75" value="PCS_STABLE" style="rounded=1;whiteSpace=wrap;html=1;" parent="1" vertex="1">
          <mxGeometry x="929" y="753" width="100" height="20" as="geometry" />
        </mxCell>
        <mxCell id="-c0DdPRZS2cD63ygfUqH-76" value="LINK UP" style="rounded=1;whiteSpace=wrap;html=1;fillColor=#14FF53;" parent="1" vertex="1">
          <mxGeometry x="939" y="787" width="70" height="20" as="geometry" />
        </mxCell>
        <mxCell id="-c0DdPRZS2cD63ygfUqH-77" style="edgeStyle=orthogonalEdgeStyle;rounded=0;orthogonalLoop=1;jettySize=auto;html=1;exitX=0.5;exitY=1;exitDx=0;exitDy=0;entryX=0.5;entryY=0;entryDx=0;entryDy=0;" parent="1" source="-c0DdPRZS2cD63ygfUqH-78" target="-c0DdPRZS2cD63ygfUqH-80" edge="1">
          <mxGeometry relative="1" as="geometry" />
        </mxCell>
        <mxCell id="-c0DdPRZS2cD63ygfUqH-78" value="PCS_STABLE" style="rounded=1;whiteSpace=wrap;html=1;" parent="1" vertex="1">
          <mxGeometry x="926" y="267" width="100" height="20" as="geometry" />
        </mxCell>
        <mxCell id="-c0DdPRZS2cD63ygfUqH-121" style="edgeStyle=orthogonalEdgeStyle;rounded=0;orthogonalLoop=1;jettySize=auto;html=1;exitX=0.5;exitY=1;exitDx=0;exitDy=0;entryX=0.5;entryY=0;entryDx=0;entryDy=0;" parent="1" source="-c0DdPRZS2cD63ygfUqH-80" target="-c0DdPRZS2cD63ygfUqH-119" edge="1">
          <mxGeometry relative="1" as="geometry" />
        </mxCell>
        <mxCell id="-c0DdPRZS2cD63ygfUqH-80" value="LINK UP" style="rounded=1;whiteSpace=wrap;html=1;fillColor=#17FF5D;" parent="1" vertex="1">
          <mxGeometry x="940" y="473" width="70" height="20" as="geometry" />
        </mxCell>
        <mxCell id="-c0DdPRZS2cD63ygfUqH-81" value="port1" style="text;html=1;align=center;verticalAlign=middle;resizable=0;points=[];autosize=1;strokeColor=none;fillColor=#FF0324;fontStyle=1" parent="1" vertex="1">
          <mxGeometry x="1020" width="50" height="30" as="geometry" />
        </mxCell>
        <mxCell id="-c0DdPRZS2cD63ygfUqH-82" style="edgeStyle=orthogonalEdgeStyle;rounded=0;orthogonalLoop=1;jettySize=auto;html=1;exitX=0.5;exitY=1;exitDx=0;exitDy=0;entryX=0.5;entryY=0;entryDx=0;entryDy=0;" parent="1" source="-c0DdPRZS2cD63ygfUqH-83" target="-c0DdPRZS2cD63ygfUqH-85" edge="1">
          <mxGeometry relative="1" as="geometry" />
        </mxCell>
        <mxCell id="-c0DdPRZS2cD63ygfUqH-83" value="ACTIVE" style="rounded=1;whiteSpace=wrap;html=1;" parent="1" vertex="1">
          <mxGeometry x="1255" y="33.5" width="50" height="20" as="geometry" />
        </mxCell>
        <mxCell id="-c0DdPRZS2cD63ygfUqH-84" style="edgeStyle=orthogonalEdgeStyle;rounded=0;orthogonalLoop=1;jettySize=auto;html=1;exitX=0.5;exitY=1;exitDx=0;exitDy=0;entryX=0.5;entryY=0;entryDx=0;entryDy=0;" parent="1" source="-c0DdPRZS2cD63ygfUqH-85" target="-c0DdPRZS2cD63ygfUqH-87" edge="1">
          <mxGeometry relative="1" as="geometry" />
        </mxCell>
        <mxCell id="-c0DdPRZS2cD63ygfUqH-85" value="WAITTING FOR PEER" style="rounded=1;whiteSpace=wrap;html=1;" parent="1" vertex="1">
          <mxGeometry x="1205" y="63.5" width="160" height="20" as="geometry" />
        </mxCell>
        <mxCell id="-c0DdPRZS2cD63ygfUqH-86" style="edgeStyle=orthogonalEdgeStyle;rounded=0;orthogonalLoop=1;jettySize=auto;html=1;exitX=0.5;exitY=1;exitDx=0;exitDy=0;" parent="1" source="-c0DdPRZS2cD63ygfUqH-87" target="-c0DdPRZS2cD63ygfUqH-89" edge="1">
          <mxGeometry relative="1" as="geometry" />
        </mxCell>
        <mxCell id="-c0DdPRZS2cD63ygfUqH-87" value="ACTIVE" style="rounded=1;whiteSpace=wrap;html=1;" parent="1" vertex="1">
          <mxGeometry x="1255" y="90" width="50" height="20" as="geometry" />
        </mxCell>
        <mxCell id="-c0DdPRZS2cD63ygfUqH-88" style="edgeStyle=orthogonalEdgeStyle;rounded=0;orthogonalLoop=1;jettySize=auto;html=1;exitX=0.5;exitY=1;exitDx=0;exitDy=0;entryX=0.5;entryY=0;entryDx=0;entryDy=0;" parent="1" source="-c0DdPRZS2cD63ygfUqH-89" target="-c0DdPRZS2cD63ygfUqH-91" edge="1">
          <mxGeometry relative="1" as="geometry" />
        </mxCell>
        <mxCell id="-c0DdPRZS2cD63ygfUqH-89" value="TUNING" style="rounded=1;whiteSpace=wrap;html=1;" parent="1" vertex="1">
          <mxGeometry x="1250" y="120" width="50" height="20" as="geometry" />
        </mxCell>
        <mxCell id="-c0DdPRZS2cD63ygfUqH-90" style="edgeStyle=orthogonalEdgeStyle;rounded=0;orthogonalLoop=1;jettySize=auto;html=1;exitX=0.5;exitY=1;exitDx=0;exitDy=0;entryX=0.5;entryY=0;entryDx=0;entryDy=0;" parent="1" source="-c0DdPRZS2cD63ygfUqH-91" target="-c0DdPRZS2cD63ygfUqH-93" edge="1">
          <mxGeometry relative="1" as="geometry" />
        </mxCell>
        <mxCell id="-c0DdPRZS2cD63ygfUqH-91" value="TUNED" style="rounded=1;whiteSpace=wrap;html=1;" parent="1" vertex="1">
          <mxGeometry x="1250" y="150" width="50" height="20" as="geometry" />
        </mxCell>
        <mxCell id="-c0DdPRZS2cD63ygfUqH-92" style="edgeStyle=orthogonalEdgeStyle;rounded=0;orthogonalLoop=1;jettySize=auto;html=1;exitX=0.5;exitY=1;exitDx=0;exitDy=0;entryX=0.5;entryY=0;entryDx=0;entryDy=0;" parent="1" source="-c0DdPRZS2cD63ygfUqH-93" target="-c0DdPRZS2cD63ygfUqH-95" edge="1">
          <mxGeometry relative="1" as="geometry" />
        </mxCell>
        <mxCell id="-c0DdPRZS2cD63ygfUqH-93" value="PCS_LOCK" style="rounded=1;whiteSpace=wrap;html=1;" parent="1" vertex="1">
          <mxGeometry x="1225" y="180" width="100" height="20" as="geometry" />
        </mxCell>
        <mxCell id="-c0DdPRZS2cD63ygfUqH-94" style="edgeStyle=orthogonalEdgeStyle;rounded=0;orthogonalLoop=1;jettySize=auto;html=1;exitX=0.5;exitY=1;exitDx=0;exitDy=0;entryX=0.5;entryY=0;entryDx=0;entryDy=0;" parent="1" source="-c0DdPRZS2cD63ygfUqH-95" target="-c0DdPRZS2cD63ygfUqH-97" edge="1">
          <mxGeometry relative="1" as="geometry" />
        </mxCell>
        <mxCell id="-c0DdPRZS2cD63ygfUqH-95" value="PCS_STABLE" style="rounded=1;whiteSpace=wrap;html=1;" parent="1" vertex="1">
          <mxGeometry x="1225" y="210" width="100" height="20" as="geometry" />
        </mxCell>
        <mxCell id="-c0DdPRZS2cD63ygfUqH-96" style="edgeStyle=orthogonalEdgeStyle;rounded=0;orthogonalLoop=1;jettySize=auto;html=1;exitX=0.5;exitY=1;exitDx=0;exitDy=0;entryX=0.5;entryY=0;entryDx=0;entryDy=0;" parent="1" source="-c0DdPRZS2cD63ygfUqH-97" target="-c0DdPRZS2cD63ygfUqH-99" edge="1">
          <mxGeometry relative="1" as="geometry" />
        </mxCell>
        <mxCell id="-c0DdPRZS2cD63ygfUqH-97" value="LINK UP" style="rounded=1;whiteSpace=wrap;html=1;fillColor=#0DFF9E;" parent="1" vertex="1">
          <mxGeometry x="1240" y="240" width="70" height="20" as="geometry" />
        </mxCell>
        <mxCell id="-c0DdPRZS2cD63ygfUqH-98" style="edgeStyle=orthogonalEdgeStyle;rounded=0;orthogonalLoop=1;jettySize=auto;html=1;exitX=0.5;exitY=1;exitDx=0;exitDy=0;entryX=0.5;entryY=0;entryDx=0;entryDy=0;" parent="1" source="-c0DdPRZS2cD63ygfUqH-99" target="-c0DdPRZS2cD63ygfUqH-101" edge="1">
          <mxGeometry relative="1" as="geometry" />
        </mxCell>
        <mxCell id="-c0DdPRZS2cD63ygfUqH-99" value="PCAL_STOP" style="rounded=1;whiteSpace=wrap;html=1;fillColor=#908CFF;" parent="1" vertex="1">
          <mxGeometry x="1225" y="267" width="100" height="20" as="geometry" />
        </mxCell>
        <mxCell id="-c0DdPRZS2cD63ygfUqH-100" style="edgeStyle=orthogonalEdgeStyle;rounded=0;orthogonalLoop=1;jettySize=auto;html=1;exitX=0.5;exitY=1;exitDx=0;exitDy=0;entryX=0.5;entryY=0;entryDx=0;entryDy=0;" parent="1" source="-c0DdPRZS2cD63ygfUqH-101" target="-c0DdPRZS2cD63ygfUqH-103" edge="1">
          <mxGeometry relative="1" as="geometry" />
        </mxCell>
        <mxCell id="-c0DdPRZS2cD63ygfUqH-101" value="WAITTING FOR PEER" style="rounded=1;whiteSpace=wrap;html=1;" parent="1" vertex="1">
          <mxGeometry x="1195" y="296" width="160" height="20" as="geometry" />
        </mxCell>
        <mxCell id="-c0DdPRZS2cD63ygfUqH-102" style="edgeStyle=orthogonalEdgeStyle;rounded=0;orthogonalLoop=1;jettySize=auto;html=1;exitX=0.5;exitY=1;exitDx=0;exitDy=0;entryX=0.5;entryY=0;entryDx=0;entryDy=0;" parent="1" source="-c0DdPRZS2cD63ygfUqH-103" target="-c0DdPRZS2cD63ygfUqH-105" edge="1">
          <mxGeometry relative="1" as="geometry" />
        </mxCell>
        <mxCell id="-c0DdPRZS2cD63ygfUqH-103" value="ACTIVE" style="rounded=1;whiteSpace=wrap;html=1;" parent="1" vertex="1">
          <mxGeometry x="1250" y="328" width="50" height="20" as="geometry" />
        </mxCell>
        <mxCell id="-c0DdPRZS2cD63ygfUqH-104" style="edgeStyle=orthogonalEdgeStyle;rounded=0;orthogonalLoop=1;jettySize=auto;html=1;exitX=0.5;exitY=1;exitDx=0;exitDy=0;entryX=0.5;entryY=0;entryDx=0;entryDy=0;" parent="1" source="-c0DdPRZS2cD63ygfUqH-105" target="-c0DdPRZS2cD63ygfUqH-107" edge="1">
          <mxGeometry relative="1" as="geometry" />
        </mxCell>
        <mxCell id="-c0DdPRZS2cD63ygfUqH-105" value="TUNING" style="rounded=1;whiteSpace=wrap;html=1;" parent="1" vertex="1">
          <mxGeometry x="1250" y="358" width="50" height="20" as="geometry" />
        </mxCell>
        <mxCell id="-c0DdPRZS2cD63ygfUqH-106" style="edgeStyle=orthogonalEdgeStyle;rounded=0;orthogonalLoop=1;jettySize=auto;html=1;exitX=0.5;exitY=1;exitDx=0;exitDy=0;entryX=0.5;entryY=0;entryDx=0;entryDy=0;" parent="1" source="-c0DdPRZS2cD63ygfUqH-107" target="-c0DdPRZS2cD63ygfUqH-109" edge="1">
          <mxGeometry relative="1" as="geometry" />
        </mxCell>
        <mxCell id="-c0DdPRZS2cD63ygfUqH-107" value="TUNED" style="rounded=1;whiteSpace=wrap;html=1;" parent="1" vertex="1">
          <mxGeometry x="1250" y="388" width="50" height="20" as="geometry" />
        </mxCell>
        <mxCell id="-c0DdPRZS2cD63ygfUqH-108" style="edgeStyle=orthogonalEdgeStyle;rounded=0;orthogonalLoop=1;jettySize=auto;html=1;exitX=0.5;exitY=1;exitDx=0;exitDy=0;entryX=0.5;entryY=0;entryDx=0;entryDy=0;" parent="1" source="-c0DdPRZS2cD63ygfUqH-109" target="-c0DdPRZS2cD63ygfUqH-111" edge="1">
          <mxGeometry relative="1" as="geometry" />
        </mxCell>
        <mxCell id="-c0DdPRZS2cD63ygfUqH-109" value="PCS_LOCK" style="rounded=1;whiteSpace=wrap;html=1;" parent="1" vertex="1">
          <mxGeometry x="1225" y="416" width="100" height="20" as="geometry" />
        </mxCell>
        <mxCell id="-c0DdPRZS2cD63ygfUqH-110" style="edgeStyle=orthogonalEdgeStyle;rounded=0;orthogonalLoop=1;jettySize=auto;html=1;exitX=0.5;exitY=1;exitDx=0;exitDy=0;entryX=0.5;entryY=0;entryDx=0;entryDy=0;" parent="1" source="-c0DdPRZS2cD63ygfUqH-111" target="-c0DdPRZS2cD63ygfUqH-113" edge="1">
          <mxGeometry relative="1" as="geometry" />
        </mxCell>
        <mxCell id="-c0DdPRZS2cD63ygfUqH-111" value="PCS_STABLE" style="rounded=1;whiteSpace=wrap;html=1;" parent="1" vertex="1">
          <mxGeometry x="1225" y="446" width="100" height="20" as="geometry" />
        </mxCell>
        <mxCell id="-c0DdPRZS2cD63ygfUqH-112" style="edgeStyle=orthogonalEdgeStyle;rounded=0;orthogonalLoop=1;jettySize=auto;html=1;exitX=0.5;exitY=1;exitDx=0;exitDy=0;entryX=0.5;entryY=0;entryDx=0;entryDy=0;" parent="1" source="-c0DdPRZS2cD63ygfUqH-113" target="-c0DdPRZS2cD63ygfUqH-115" edge="1">
          <mxGeometry relative="1" as="geometry" />
        </mxCell>
        <mxCell id="-c0DdPRZS2cD63ygfUqH-113" value="LINK UP" style="rounded=1;whiteSpace=wrap;html=1;fillColor=#14FF53;" parent="1" vertex="1">
          <mxGeometry x="1235" y="473" width="70" height="20" as="geometry" />
        </mxCell>
        <mxCell id="-c0DdPRZS2cD63ygfUqH-114" style="edgeStyle=orthogonalEdgeStyle;rounded=0;orthogonalLoop=1;jettySize=auto;html=1;exitX=0.5;exitY=1;exitDx=0;exitDy=0;entryX=0.5;entryY=0;entryDx=0;entryDy=0;" parent="1" source="-c0DdPRZS2cD63ygfUqH-115" target="-c0DdPRZS2cD63ygfUqH-116" edge="1">
          <mxGeometry relative="1" as="geometry" />
        </mxCell>
        <mxCell id="-c0DdPRZS2cD63ygfUqH-115" value="PCS_STABLE" style="rounded=1;whiteSpace=wrap;html=1;" parent="1" vertex="1">
          <mxGeometry x="1220" y="573" width="100" height="20" as="geometry" />
        </mxCell>
        <mxCell id="-c0DdPRZS2cD63ygfUqH-145" style="edgeStyle=orthogonalEdgeStyle;rounded=0;orthogonalLoop=1;jettySize=auto;html=1;exitX=0.5;exitY=1;exitDx=0;exitDy=0;entryX=0.5;entryY=0;entryDx=0;entryDy=0;" parent="1" source="-c0DdPRZS2cD63ygfUqH-116" target="-c0DdPRZS2cD63ygfUqH-136" edge="1">
          <mxGeometry relative="1" as="geometry" />
        </mxCell>
        <mxCell id="-c0DdPRZS2cD63ygfUqH-116" value="LINK UP" style="rounded=1;whiteSpace=wrap;html=1;fillColor=#17FF5D;" parent="1" vertex="1">
          <mxGeometry x="1235" y="787" width="70" height="20" as="geometry" />
        </mxCell>
        <mxCell id="-c0DdPRZS2cD63ygfUqH-117" value="port3" style="text;html=1;align=center;verticalAlign=middle;resizable=0;points=[];autosize=1;strokeColor=none;fillColor=#FF0F47;fontStyle=1" parent="1" vertex="1">
          <mxGeometry x="1355" width="50" height="30" as="geometry" />
        </mxCell>
        <mxCell id="-c0DdPRZS2cD63ygfUqH-118" style="edgeStyle=orthogonalEdgeStyle;rounded=0;orthogonalLoop=1;jettySize=auto;html=1;exitX=0.5;exitY=1;exitDx=0;exitDy=0;entryX=0.5;entryY=0;entryDx=0;entryDy=0;" parent="1" source="-c0DdPRZS2cD63ygfUqH-119" target="-c0DdPRZS2cD63ygfUqH-120" edge="1">
          <mxGeometry relative="1" as="geometry" />
        </mxCell>
        <mxCell id="-c0DdPRZS2cD63ygfUqH-119" value="PCS_STABLE" style="rounded=1;whiteSpace=wrap;html=1;" parent="1" vertex="1">
          <mxGeometry x="926" y="513" width="100" height="20" as="geometry" />
        </mxCell>
        <mxCell id="-c0DdPRZS2cD63ygfUqH-138" style="edgeStyle=orthogonalEdgeStyle;rounded=0;orthogonalLoop=1;jettySize=auto;html=1;exitX=0.5;exitY=1;exitDx=0;exitDy=0;entryX=0.5;entryY=0;entryDx=0;entryDy=0;" parent="1" source="-c0DdPRZS2cD63ygfUqH-120" target="-c0DdPRZS2cD63ygfUqH-63" edge="1">
          <mxGeometry relative="1" as="geometry" />
        </mxCell>
        <mxCell id="-c0DdPRZS2cD63ygfUqH-120" value="LINK UP" style="rounded=1;whiteSpace=wrap;html=1;fillColor=#17FF5D;" parent="1" vertex="1">
          <mxGeometry x="941" y="543" width="70" height="20" as="geometry" />
        </mxCell>
        <mxCell id="-c0DdPRZS2cD63ygfUqH-124" value="" style="shape=link;html=1;rounded=0;" parent="1" edge="1">
          <mxGeometry width="100" relative="1" as="geometry">
            <mxPoint x="780" as="sourcePoint" />
            <mxPoint x="790" y="804.7058823529412" as="targetPoint" />
          </mxGeometry>
        </mxCell>
        <mxCell id="-c0DdPRZS2cD63ygfUqH-125" value="22:41:02 &#xa;&#xa;22:41:02&#xa;&#xa;22:41:02&#xa;&#xa;22:41:02&#xa;&#xa;22:41:03&#xa;&#xa;22:41:04 &#xa;&#xa;22:41:05&#xa;&#xa;22:41:05 &#xa;&#xa;22:41:56&#xa;&#xa;&#xa;&#xa;&#xa;&#xa;&#xa;&#xa;&#xa;&#xa;&#xa;&#xa;&#xa;&#xa;22:42:01&#xa; &#xa;&#xa;22:42:01&#xa;&#xa;22:42:01&#xa;&#xa;22:42:28&#xa; &#xa;&#xa;22:42:28&#xa;&#xa;22:42:28&#xa;&#xa;22:42:28&#xa;&#xa;22:42:32&#xa;&#xa;22:42:32 &#xa;&#xa;22:42:33&#xa;&#xa;22:42:33" style="text;whiteSpace=wrap;fontStyle=1" parent="1" vertex="1">
          <mxGeometry x="835" y="33" width="60" height="650" as="geometry" />
        </mxCell>
        <mxCell id="-c0DdPRZS2cD63ygfUqH-131" style="edgeStyle=orthogonalEdgeStyle;rounded=0;orthogonalLoop=1;jettySize=auto;html=1;exitX=0.5;exitY=1;exitDx=0;exitDy=0;entryX=0.5;entryY=0;entryDx=0;entryDy=0;" parent="1" source="-c0DdPRZS2cD63ygfUqH-129" target="-c0DdPRZS2cD63ygfUqH-57" edge="1">
          <mxGeometry relative="1" as="geometry" />
        </mxCell>
        <mxCell id="-c0DdPRZS2cD63ygfUqH-129" value="TUNED" style="rounded=1;whiteSpace=wrap;html=1;" parent="1" vertex="1">
          <mxGeometry x="951" y="150" width="50" height="20" as="geometry" />
        </mxCell>
        <mxCell id="-c0DdPRZS2cD63ygfUqH-135" style="edgeStyle=orthogonalEdgeStyle;rounded=0;orthogonalLoop=1;jettySize=auto;html=1;exitX=0.5;exitY=1;exitDx=0;exitDy=0;entryX=0.5;entryY=0;entryDx=0;entryDy=0;" parent="1" source="-c0DdPRZS2cD63ygfUqH-136" target="-c0DdPRZS2cD63ygfUqH-137" edge="1">
          <mxGeometry relative="1" as="geometry" />
        </mxCell>
        <mxCell id="-c0DdPRZS2cD63ygfUqH-136" value="PCS_STABLE" style="rounded=1;whiteSpace=wrap;html=1;" parent="1" vertex="1">
          <mxGeometry x="1220" y="820" width="100" height="20" as="geometry" />
        </mxCell>
        <mxCell id="-c0DdPRZS2cD63ygfUqH-137" value="LINK UP" style="rounded=1;whiteSpace=wrap;html=1;fillColor=#17FF5D;" parent="1" vertex="1">
          <mxGeometry x="1235" y="850" width="70" height="20" as="geometry" />
        </mxCell>
        <mxCell id="-c0DdPRZS2cD63ygfUqH-141" value="22:41:02 &#xa;&#xa;22:41:02&#xa;&#xa;22:41:02&#xa;&#xa;22:41:02&#xa;&#xa;22:41:03&#xa;&#xa;22:41:04 &#xa;&#xa;22:41:05&#xa;&#xa;22:41:05 &#xa;&#xa;22:41:56 &#xa;&#xa;22:41:56&#xa;&#xa;22:41:56&#xa;&#xa;22:41:56&#xa;&#xa;22:41:59&#xa;&#xa;22:41:59 &#xa;&#xa;22:42:01&#xa;&#xa;22:42:01&#xa;&#xa;&#xa;&#xa;&#xa;&#xa;&#xa;22:42:28&#xa;&#xa;&#xa;&#xa;&#xa;&#xa;&#xa;&#xa;&#xa;&#xa;&#xa;&#xa;&#xa;&#xa;&#xa;22:42:33 &#xa;&#xa;22:42:34&#xa;&#xa;22:42:34" style="text;whiteSpace=wrap;fontStyle=1" parent="1" vertex="1">
          <mxGeometry x="1120" y="36" width="80" height="860" as="geometry" />
        </mxCell>
        <mxCell id="-c0DdPRZS2cD63ygfUqH-146" style="edgeStyle=orthogonalEdgeStyle;rounded=0;orthogonalLoop=1;jettySize=auto;html=1;exitX=0.25;exitY=0;exitDx=0;exitDy=0;entryX=0.5;entryY=0;entryDx=0;entryDy=0;" parent="1" source="-c0DdPRZS2cD63ygfUqH-125" target="-c0DdPRZS2cD63ygfUqH-125" edge="1">
          <mxGeometry relative="1" as="geometry" />
        </mxCell>
        <mxCell id="-c0DdPRZS2cD63ygfUqH-148" value="13:32:08 &#xa;&#xa;13:32:08&#xa;&#xa;13:32:08&#xa;&#xa;13:32:08&#xa;&#xa;13:32:11&#xa;&#xa;13:32:11 &#xa;&#xa;&#xa;13:32:12&#xa;&#xa;13:32:13 &#xa;&#xa;13:34:07&#xa;&#xa;&#xa;&#xa;&#xa;&#xa;&#xa;&#xa;&#xa;&#xa;&#xa;&#xa;&#xa;&#xa;13:34:13&#xa;&#xa;13:34:40 &#xa;&#xa;13:34:40&#xa;&#xa;13:34:40&#xa;&#xa;13:34:40&#xa;&#xa;13:34:45&#xa;&#xa;13:34:45 &#xa;&#xa;13:34:46&#xa;&#xa;13:34:46" style="text;whiteSpace=wrap;fontStyle=1" parent="1" vertex="1">
          <mxGeometry x="200" y="27" width="80" height="770" as="geometry" />
        </mxCell>
        <mxCell id="-c0DdPRZS2cD63ygfUqH-150" value="13:32:08 &#xa;&#xa;13:32:08&#xa;&#xa;13:32:08&#xa;&#xa;13:32:08&#xa;&#xa;13:32:11&#xa;&#xa;13:32:11  &#xa;&#xa;&#xa;13:32:12&#xa;&#xa;13:32:12&#xa;&#xa;13:34:07 &#xa;&#xa;13:34:07&#xa;&#xa;13:34:07&#xa;&#xa;13:34:07&#xa;&#xa;13:34:12&#xa;&#xa;13:34:12 &#xa;&#xa;13:34:13&#xa;&#xa;13:34:13 &#xa;&#xa;13:34:40&#xa;&#xa;&#xa;&#xa;&#xa;&#xa;&#xa;&#xa;&#xa;&#xa;&#xa;&#xa;&#xa;&#xa;13:34:46" style="text;whiteSpace=wrap;fontStyle=1" parent="1" vertex="1">
          <mxGeometry x="485" y="27" width="90" height="770" as="geometry" />
        </mxCell>
        <mxCell id="-c0DdPRZS2cD63ygfUqH-154" value="/nobackup/shaozhao/v9p11_8_updated_Corner4_Loop9_20240903134226" style="text;html=1;align=center;verticalAlign=middle;resizable=0;points=[];autosize=1;strokeColor=none;fillColor=none;" parent="1" vertex="1">
          <mxGeometry x="197" y="910" width="420" height="30" as="geometry" />
        </mxCell>
        <mxCell id="-c0DdPRZS2cD63ygfUqH-155" value="/auto/crdc_ecbu_edvt/qyue/Projects/Silicon/EDVT/diagTrfPC/25_25_100/P2B2/ST.2/macsec/log/v9p11_8_updated_Corner3_Loop9_20241106225107" style="text;html=1;align=center;verticalAlign=middle;resizable=0;points=[];autosize=1;strokeColor=none;fillColor=none;" parent="1" vertex="1">
          <mxGeometry x="720" y="908" width="820" height="30" as="geometry" />
        </mxCell>
        <mxCell id="-c0DdPRZS2cD63ygfUqH-157" value="/auto/crdc_ecbu_edvt/qyue/Projects/Silicon/EDVT/diagTrfPC/25_25_100/P2B2/ST.2/macsec/allagash_diag_st_2_macsec_trf_pc_25_100_p2_b2_optics_4532_20241106_C34.txt" style="text;html=1;align=center;verticalAlign=middle;resizable=0;points=[];autosize=1;strokeColor=none;fillColor=none;" parent="1" vertex="1">
          <mxGeometry x="670" y="938" width="970" height="30" as="geometry" />
        </mxCell>
        <UserObject label="/auto/crdc_ecbu_edvt/qyue/Projects/Silicon/EDVT/diagTrfPC/25_25_100/P2B2/log/allagash_diag_trf_pc_25_100_p2_b2_optics_4402_2000ms_dsp_mode7_20240902_C34.txt.txt" id="-c0DdPRZS2cD63ygfUqH-158">
          <mxCell style="text;whiteSpace=wrap;" parent="1" vertex="1">
            <mxGeometry x="-10" y="980" width="530" height="40" as="geometry" />
          </mxCell>
        </UserObject>
      </root>
    </mxGraphModel>
  </diagram>
</mxfile>
